<?xml version="1.0" encoding="UTF-8"?> <svg xmlns="http://www.w3.org/2000/svg" viewBox="0 0 512 512"><defs><linearGradient id="meteoconsStarFill0" x1="187.9" x2="324.1" y1="138.1" y2="373.9" gradientUnits="userSpaceOnUse"><stop offset="0" stop-color="#ff0000"></stop><stop offset=".5" stop-color="#ff0000"></stop><stop offset="1" stop-color="black"></stop></linearGradient></defs><path fill="url(#meteoconsStarFill0)" stroke="#e30202" stroke-linecap="round" stroke-linejoin="round" stroke-width="8" d="m105.7 263.5l107.5 29.9a7.9 7.9 0 0 1 5.4 5.4l29.9 107.5a7.8 7.8 0 0 0 15 0l29.9-107.5a7.9 7.9 0 0 1 5.4-5.4l107.5-29.9a7.8 7.8 0 0 0 0-15l-107.5-29.9a7.9 7.9 0 0 1-5.4-5.4l-29.9-107.5a7.8 7.8 0 0 0-15 0l-29.9 107.5a7.9 7.9 0 0 1-5.4 5.4l-107.5 29.9a7.8 7.8 0 0 0 0 15Z"><animateTransform attributeName="transform" dur="4.5s" keySplines=".42, 0, .58, 1; .42, 0, .58, 1" repeatCount="indefinite" type="rotate" values="-15 256 256; 15 256 256; -15 256 256"></animateTransform></path></svg> 